<?xml version="1.0" encoding="utf-8"?>
<!-- Generator: Adobe Illustrator 16.0.0, SVG Export Plug-In . SVG Version: 6.00 Build 0)  -->
<!DOCTYPE svg PUBLIC "-//W3C//DTD SVG 1.1//EN" "http://www.w3.org/Graphics/SVG/1.1/DTD/svg11.dtd">
<svg version="1.1" id="Layer_1" xmlns="http://www.w3.org/2000/svg" xmlns:xlink="http://www.w3.org/1999/xlink" x="0px" y="0px"
	 width="200px" height="200px" viewBox="0 0 200 200" enable-background="new 0 0 200 200" xml:space="preserve">
<g>
	<path fill="#50AFE4" d="M39.706,175.981v-9.092h-7.353v9.092h-4.241V154.26h4.241v8.878h7.353v-8.878h4.24v21.722H39.706z"/>
	<path fill="#50AFE4" d="M49.01,175.981V154.26h4.241v21.722H49.01z"/>
	<path fill="#50AFE4" d="M73.751,175.981v-12.66l-4.148,8.236h-2.868l-4.18-8.236v12.66h-4.24V154.26h4.179l5.675,11.745
		l5.644-11.745h4.18v21.722H73.751z"/>
	<path fill="#50AFE4" d="M95.412,175.981l-1.281-3.844h-7.718l-1.312,3.844h-4.424l7.902-21.722h3.325l7.932,21.722H95.412z
		 M90.348,160.667l-2.746,7.901h5.4L90.348,160.667z"/>
	<path fill="#50AFE4" d="M102.52,175.981V154.26h4.24v17.939h9.854v3.782H102.52z"/>
	<path fill="#50AFE4" d="M132.417,175.981l-1.281-3.844h-7.718l-1.313,3.844h-4.424l7.902-21.722h3.324l7.933,21.722H132.417z
		 M127.353,160.667l-2.745,7.901h5.399L127.353,160.667z"/>
	<path fill="#50AFE4" d="M146.755,167.073v8.908h-4.21v-8.908l-6.528-12.813h4.606l4.057,8.756l3.997-8.756h4.607L146.755,167.073z"
		/>
	<path fill="#50AFE4" d="M167.043,175.981l-1.281-3.844h-7.719l-1.312,3.844h-4.424l7.901-21.722h3.324l7.933,21.722H167.043z
		 M161.979,160.667l-2.746,7.901h5.4L161.979,160.667z"/>
</g>
<g>
	<path fill="#50AFE4" d="M38.886,197.424c-0.318,0.568-0.71,1.045-1.176,1.43c-0.467,0.386-0.998,0.674-1.592,0.862
		c-0.595,0.189-1.224,0.284-1.886,0.284c-0.798,0-1.518-0.135-2.16-0.405s-1.22-0.662-1.734-1.177
		c-0.365-0.365-0.646-0.754-0.842-1.166c-0.196-0.412-0.334-0.855-0.416-1.328c-0.081-0.474-0.128-0.98-0.142-1.521
		c-0.014-0.541-0.021-1.122-0.021-1.745c0-0.621,0.006-1.202,0.021-1.744c0.013-0.54,0.061-1.047,0.142-1.521
		c0.082-0.474,0.22-0.916,0.416-1.328c0.196-0.413,0.477-0.802,0.842-1.167c0.514-0.514,1.092-0.905,1.734-1.176
		s1.362-0.405,2.16-0.405c0.676,0,1.308,0.094,1.896,0.283s1.115,0.477,1.582,0.862c0.466,0.385,0.858,0.861,1.176,1.43
		c0.317,0.568,0.538,1.23,0.659,1.987h-2.86c-0.149-0.581-0.413-1.067-0.791-1.46c-0.378-0.392-0.926-0.589-1.643-0.589
		c-0.393,0-0.741,0.068-1.045,0.204c-0.304,0.135-0.558,0.317-0.76,0.547c-0.135,0.149-0.25,0.314-0.345,0.497
		s-0.169,0.423-0.223,0.721c-0.055,0.297-0.091,0.676-0.112,1.135c-0.02,0.46-0.03,1.035-0.03,1.724c0,0.69,0.01,1.266,0.03,1.725
		c0.021,0.46,0.057,0.839,0.112,1.136c0.054,0.298,0.128,0.538,0.223,0.72c0.095,0.184,0.21,0.349,0.345,0.497
		c0.203,0.23,0.457,0.413,0.76,0.548c0.304,0.135,0.652,0.203,1.045,0.203c0.716,0,1.264-0.196,1.643-0.588
		c0.378-0.393,0.642-0.879,0.791-1.461h2.86C39.424,196.194,39.204,196.856,38.886,197.424z"/>
	<path fill="#50AFE4" d="M60.943,199.879l-0.852-2.556H54.96l-0.872,2.556h-2.941l5.253-14.441h2.211l5.273,14.441H60.943z
		 M57.577,189.697l-1.825,5.253h3.59L57.577,189.697z"/>
	<path fill="#50AFE4" d="M86.661,191.674c-0.216,0.548-0.531,1.028-0.943,1.44c-0.413,0.413-0.913,0.737-1.501,0.974
		s-1.254,0.354-1.998,0.354h-2.778v5.437h-2.819v-14.441h5.598c0.744,0,1.41,0.119,1.998,0.355s1.088,0.561,1.501,0.973
		c0.412,0.413,0.727,0.893,0.943,1.44s0.325,1.126,0.325,1.734S86.877,191.127,86.661,191.674z M83.608,188.5
		c-0.372-0.365-0.882-0.548-1.531-0.548h-2.636v3.955h2.636c0.649,0,1.16-0.179,1.531-0.537c0.372-0.358,0.558-0.835,0.558-1.43
		S83.98,188.865,83.608,188.5z"/>
	<path fill="#50AFE4" d="M100.312,199.879v-14.441h2.818v14.441H100.312z"/>
	<path fill="#50AFE4" d="M122.967,187.952v11.927h-2.82v-11.927h-3.771v-2.515h10.364v2.515H122.967z"/>
	<path fill="#50AFE4" d="M146.981,199.879l-0.853-2.556h-5.131l-0.872,2.556h-2.94l5.252-14.441h2.212l5.273,14.441H146.981z
		 M143.614,189.697l-1.825,5.253h3.59L143.614,189.697z"/>
	<path fill="#50AFE4" d="M162.658,199.879v-14.441h2.82v11.926h6.551v2.516H162.658z"/>
</g>
<g>
	<polygon fill="#50AFE4" points="152.975,0 130.026,0 111.47,0 111.47,18.556 111.47,41.505 88.03,41.505 88.03,18.556 88.03,0 
		69.475,0 46.525,0 27.971,0 27.971,18.556 27.971,143.562 46.525,143.562 46.525,18.556 69.475,18.556 69.475,41.505 
		69.475,60.062 88.03,60.062 111.47,60.062 129.536,60.062 130.026,60.062 130.026,18.556 152.975,18.556 152.975,143.562 
		171.529,143.562 171.529,18.556 171.529,0 	"/>
</g>
<g>
	<polygon fill="#50AFE4" points="110.737,118.658 110.737,124.273 89.009,124.273 89.009,102.544 110.737,102.544 110.737,108.159 
		130.026,108.159 130.026,83.257 69.72,83.257 69.72,143.562 130.026,143.562 130.026,118.658 	"/>
</g>
</svg>
